<svg xmlns="http://www.w3.org/2000/svg" width="144" height="144" viewBox="0 0 144 144"><rect x="6" y="6" width="132" height="132" rx="28" fill="#26282E"/><g transform="translate(31,31) scale(0.32)" fill="#FFC53D"><path d="M128,24A104,104,0,1,0,232,128,104.11,104.11,0,0,0,128,24ZM92,96a12,12,0,1,1-12,12A12,12,0,0,1,92,96Zm82.92,60c-10.29,17.79-27.39,28-46.92,28s-36.63-10.2-46.92-28a8,8,0,1,1,13.84-8c7.47,12.91,19.21,20,33.08,20s25.61-7.1,33.08-20a8,8,0,1,1,13.84,8ZM164,120a12,12,0,1,1,12-12A12,12,0,0,1,164,120Z"/></g></svg>